<?xml version="1.0" encoding="UTF-8"?>
<!DOCTYPE svg PUBLIC "-//W3C//DTD SVG 1.1//EN" "http://www.w3.org/Graphics/SVG/1.1/DTD/svg11.dtd">
<svg xmlns="http://www.w3.org/2000/svg" version="1.1" width="471px" height="471px" style="shape-rendering:geometricPrecision; text-rendering:geometricPrecision; image-rendering:optimizeQuality; fill-rule:evenodd; clip-rule:evenodd" xmlns:xlink="http://www.w3.org/1999/xlink">
<g><path style="opacity:0.914" fill="#000000" d="M 303.5,14.5 C 305.5,14.5 307.5,14.5 309.5,14.5C 309.567,16.4008 309.233,18.2341 308.5,20C 308.78,21.395 309.447,22.5617 310.5,23.5C 318.069,25.156 325.736,26.156 333.5,26.5C 333.329,28.9928 334.329,30.8261 336.5,32C 346.019,35.6729 355.685,38.8396 365.5,41.5C 365.162,44.0115 365.162,46.3448 365.5,48.5C 370.643,51.5732 375.977,54.4065 381.5,57C 381.388,63.0731 384.054,67.5731 389.5,70.5C 390.386,71.325 390.719,72.325 390.5,73.5C 380.771,73.4376 371.104,72.6042 361.5,71C 345.638,67.0347 329.638,63.7014 313.5,61C 291.012,57.2007 269.678,60.5341 249.5,71C 244.245,74.2511 239.578,78.2511 235.5,83C 234.833,83.6667 234.167,83.6667 233.5,83C 231.333,79.5 229.167,76 227,72.5C 224.64,65.6918 225.64,59.3585 230,53.5C 248.487,29.3379 272.987,16.3379 303.5,14.5 Z"/></g>
<g><path style="opacity:0.822" fill="#000000" d="M 110.5,57.5 C 151.738,56.5801 190.738,65.4135 227.5,84C 232.822,86.9225 233.822,90.9225 230.5,96C 228.167,96.6667 225.833,96.6667 223.5,96C 192.501,78.8045 159.334,71.9711 124,75.5C 119.701,71.531 115.701,67.1977 112,62.5C 110.991,60.9751 110.491,59.3084 110.5,57.5 Z"/></g>
<g><path style="opacity:0.913" fill="#000000" d="M 98.5,59.5 C 100.39,59.2965 101.89,59.9632 103,61.5C 120.037,82.8707 139.37,101.871 161,118.5C 163.254,122.007 165.254,125.673 167,129.5C 167.514,139.612 168.847,149.612 171,159.5C 173.292,170.27 179.125,178.437 188.5,184C 206.538,193.012 223.205,204.012 238.5,217C 249.825,227.814 256.825,240.981 259.5,256.5C 237.388,252.722 215.721,247.222 194.5,240C 189.999,237.584 185.666,234.917 181.5,232C 175.597,225.437 169.763,218.937 164,212.5C 156.529,221.636 148.029,229.803 138.5,237C 125.239,243.817 111.239,248.484 96.5,251C 88.1295,253.735 79.7961,256.568 71.5,259.5C 72.1707,234.336 83.5041,215.503 105.5,203C 118.167,196.333 130.833,189.667 143.5,183C 149.819,177.196 153.653,170.03 155,161.5C 155.667,155.167 155.667,148.833 155,142.5C 151.346,134.506 145.846,128.006 138.5,123C 123.918,113.457 109.085,104.291 94,95.5C 91.6261,91.1065 90.9595,86.4398 92,81.5C 94.2745,74.1787 96.4411,66.8453 98.5,59.5 Z"/></g>
<g><path style="opacity:0.916" fill="#000000" d="M 286.5,67.5 C 295.866,67.3722 305.2,67.8722 314.5,69C 330.265,71.8579 345.932,75.1912 361.5,79C 371.494,80.2327 381.494,81.3994 391.5,82.5C 385.41,85.8106 379.077,88.6439 372.5,91C 371.833,91.6667 371.167,92.3333 370.5,93C 372.202,95.2354 373.202,97.7354 373.5,100.5C 359.092,100.105 344.758,100.939 330.5,103C 323.095,104.135 316.095,106.468 309.5,110C 304.167,114.667 304.167,119.333 309.5,124C 312.363,125.399 315.363,126.399 318.5,127C 327.467,128.106 336.467,128.606 345.5,128.5C 343.53,133.093 344.53,136.926 348.5,140C 356.674,143.668 365.007,146.835 373.5,149.5C 373.5,150.5 373.5,151.5 373.5,152.5C 368.291,151.705 366.291,153.705 367.5,158.5C 377.447,164.616 385.947,172.283 393,181.5C 394.112,183.39 394.946,185.39 395.5,187.5C 393.805,190.035 392.305,192.702 391,195.5C 391.907,211.582 391.074,227.582 388.5,243.5C 387.448,243.649 386.448,243.483 385.5,243C 366.364,222.537 349.53,200.371 335,176.5C 309.752,141.413 277.919,114.079 239.5,94.5C 238.386,93.277 238.219,91.9437 239,90.5C 246.658,80.8652 256.491,74.3652 268.5,71C 274.581,69.5026 280.581,68.3359 286.5,67.5 Z"/></g>
<g><path style="opacity:0.935" fill="#000000" d="M 228.5,99.5 C 234.543,100.515 240.21,102.682 245.5,106C 274.927,123.082 300.427,144.915 322,171.5C 338.458,197.412 356.625,222.078 376.5,245.5C 375.667,245.833 374.833,246.167 374,246.5C 365.461,245.026 356.961,243.359 348.5,241.5C 344.372,242.391 342.705,245.058 343.5,249.5C 335.21,248.927 327.21,247.094 319.5,244C 315.303,240.799 311.47,237.299 308,233.5C 305.699,234.8 303.699,236.467 302,238.5C 300.51,237.683 299.01,236.85 297.5,236C 293.008,228.181 289.175,220.014 286,211.5C 282.918,208.803 280.085,209.136 277.5,212.5C 276.186,211.687 275.019,210.687 274,209.5C 269.234,201.207 265.234,192.54 262,183.5C 259.55,178.716 256.05,174.883 251.5,172C 242.2,170.495 237.2,174.495 236.5,184C 238.356,194.571 242.356,204.237 248.5,213C 247.975,213.692 247.308,214.192 246.5,214.5C 232.814,202.24 217.98,191.573 202,182.5C 198.983,150.857 207.816,123.19 228.5,99.5 Z"/></g>
<g><path style="opacity:0.873" fill="#000000" d="M 184.5,102.5 C 194.562,102.281 204.562,102.948 214.5,104.5C 199.933,126.544 192.6,150.877 192.5,177.5C 183.943,172.744 179.11,165.411 178,155.5C 176.344,146.909 175.344,138.243 175,129.5C 173.304,125.275 171.471,121.108 169.5,117C 173.062,110.603 178.062,105.77 184.5,102.5 Z"/></g>
<g><path style="opacity:0.915" fill="#000000" d="M 162.5,224.5 C 168.036,229.652 173.702,234.819 179.5,240C 190.892,248.193 203.559,253.36 217.5,255.5C 216.569,267.692 212.069,278.359 204,287.5C 191.926,297.786 179.759,307.952 167.5,318C 166.167,318.667 164.833,318.667 163.5,318C 151.387,308.188 139.554,298.022 128,287.5C 120.378,278.151 115.545,267.485 113.5,255.5C 128.85,251.492 142.517,244.325 154.5,234C 157.754,231.253 160.42,228.086 162.5,224.5 Z M 162.5,246.5 C 165.238,245.965 167.072,246.965 168,249.5C 168.667,259.833 168.667,270.167 168,280.5C 165.667,284.5 163.333,284.5 161,280.5C 160.333,269.833 160.333,259.167 161,248.5C 161.717,247.956 162.217,247.289 162.5,246.5 Z"/></g>
<g><path style="opacity:0.904" fill="#000000" d="M 103.5,256.5 C 104.5,256.5 105.5,256.5 106.5,256.5C 107.529,266.752 111.029,276.085 117,284.5C 117.667,286.167 117.667,287.833 117,289.5C 112.318,299.35 105.818,307.85 97.5,315C 89.3195,320.925 81.3195,327.091 73.5,333.5C 72.914,333.291 72.414,332.957 72,332.5C 65.7923,313.063 66.1257,293.73 73,274.5C 74.4545,271.088 76.2879,267.921 78.5,265C 86.9792,262.23 95.3125,259.397 103.5,256.5 Z"/></g>
<g><path style="opacity:0.906" fill="#000000" d="M 225.5,257.5 C 235.533,259.473 245.533,261.64 255.5,264C 267.894,286.483 269.561,309.65 260.5,333.5C 250.833,326 241.167,318.5 231.5,311C 225.889,304.722 221.056,297.888 217,290.5C 215.85,288.246 215.516,285.913 216,283.5C 221.045,275.531 224.212,266.865 225.5,257.5 Z"/></g>
<g><path style="opacity:0.909" fill="#000000" d="M 207.5,293.5 C 208.822,293.33 209.989,293.663 211,294.5C 213.919,300.677 217.586,306.344 222,311.5C 222.277,316.399 221.277,321.065 219,325.5C 215.187,334.298 210.187,342.298 204,349.5C 191.612,360.225 178.946,370.559 166,380.5C 151.614,370.125 137.947,358.792 125,346.5C 118.444,338.058 113.444,328.724 110,318.5C 109.333,316.5 109.333,314.5 110,312.5C 114.738,307.36 118.738,301.693 122,295.5C 122.718,294.549 123.551,294.383 124.5,295C 136.628,304.792 148.461,314.959 160,325.5C 160.333,332.167 160.667,338.833 161,345.5C 163.333,349.5 165.667,349.5 168,345.5C 168.333,338.833 168.667,332.167 169,325.5C 179.38,316.397 190.213,307.897 201.5,300C 203.706,297.963 205.706,295.797 207.5,293.5 Z"/></g>
<g><path style="opacity:0.881" fill="#000000" d="M 230.5,319.5 C 236.547,324.279 242.714,328.946 249,333.5C 252.866,356.072 246.866,375.405 231,391.5C 224.293,379.252 217.46,367.085 210.5,355C 213.602,349.309 217.102,343.809 221,338.5C 224.217,332.066 227.384,325.733 230.5,319.5 Z"/></g>
<g><path style="opacity:0.877" fill="#000000" d="M 100.5,321.5 C 101.5,321.5 102.5,321.5 103.5,321.5C 104.818,327.142 106.985,332.475 110,337.5C 114.224,343.706 118.391,349.873 122.5,356C 115.718,367.727 109.051,379.56 102.5,391.5C 86.9086,375.218 81.0753,355.884 85,333.5C 90.3523,329.636 95.519,325.636 100.5,321.5 Z"/></g>
<g><path style="opacity:0.91" fill="#000000" d="M 202.5,360.5 C 203.496,360.414 204.329,360.748 205,361.5C 209.064,367.236 212.73,373.236 216,379.5C 216.063,390.311 212.73,399.977 206,408.5C 196.379,418.461 185.879,427.295 174.5,435C 172.167,437.333 169.833,439.667 167.5,442C 166.167,442.667 164.833,442.667 163.5,442C 150.071,431.241 137.237,419.741 125,407.5C 120.38,401.05 116.88,394.05 114.5,386.5C 118.057,378.384 122.391,370.717 127.5,363.5C 128.723,362.386 130.056,362.219 131.5,363C 141.291,370.456 150.791,378.289 160,386.5C 160.5,387.5 161,388.5 161.5,389.5C 160.382,394.78 160.216,400.113 161,405.5C 163.333,409.5 165.667,409.5 168,405.5C 168.333,399.833 168.667,394.167 169,388.5C 179.775,378.553 190.942,369.22 202.5,360.5 Z"/></g>
</svg>
